<?xml version="1.0" encoding="UTF-8"?>
<svg width="192" height="192" viewBox="0 0 192 192" fill="none" xmlns="http://www.w3.org/2000/svg">
  <!-- Background circle -->
  <circle cx="96" cy="96" r="96" fill="#27AE60"/>
  
  <!-- Government building icon -->
  <g transform="translate(24,40)">
    <!-- Building pillars -->
    <rect x="20" y="32" width="8" height="80" fill="white"/>
    <rect x="36" y="32" width="8" height="80" fill="white"/>
    <rect x="52" y="32" width="8" height="80" fill="white"/>
    <rect x="68" y="32" width="8" height="80" fill="white"/>
    <rect x="84" y="32" width="8" height="80" fill="white"/>
    <rect x="100" y="32" width="8" height="80" fill="white"/>
    <rect x="116" y="32" width="8" height="80" fill="white"/>
    
    <!-- Roof -->
    <polygon points="72,16 8,32 136,32" fill="white"/>
    
    <!-- Base -->
    <rect x="0" y="112" width="144" height="16" fill="white"/>
    
    <!-- Steps -->
    <rect x="8" y="104" width="128" height="8" fill="white"/>
    <rect x="16" y="96" width="112" height="8" fill="white"/>
    
    <!-- Central entrance -->
    <rect x="64" y="72" width="16" height="40" fill="#27AE60"/>
    
    <!-- Japanese characters overlay -->
    <text x="72" y="52" font-family="Arial, sans-serif" font-size="14" fill="#27AE60" text-anchor="middle">国</text>
    <text x="72" y="68" font-family="Arial, sans-serif" font-size="14" fill="#27AE60" text-anchor="middle">会</text>
  </g>
  
  <!-- Search icon overlay -->
  <g transform="translate(120,120)">
    <circle cx="16" cy="16" r="12" stroke="white" stroke-width="3" fill="none"/>
    <line x1="27" y1="27" x2="35" y2="35" stroke="white" stroke-width="3" stroke-linecap="round"/>
  </g>
</svg>