<?xml version="1.0" encoding="UTF-8"?><svg id="_レイヤー_1" xmlns="http://www.w3.org/2000/svg" viewBox="0 0 1758.35 365"><path d="M322.46,140.47c-5.56,41.14-14.46,75.06-29.47,103.14,12.79,16.12,28.91,29.19,48.65,38.09-9.17,8.06-21.41,23.91-27.24,34.75-18.63-10.01-33.64-22.52-46.43-37.53-14.18,15.57-31.97,28.36-53.38,38.92-3.61-9.17-15.29-27.52-22.52-35.86,22.52-9.45,39.75-21.96,53.1-38.09-8.06-15.85-14.46-33.36-20.02-52.54-1.39,1.95-3.06,3.61-4.45,5.56-3.89-4.73-11.95-12.51-19.46-19.18v8.34h-28.36v49.48l34.19-6.67,3.61,36.7c-45.59,10.29-95.08,20.85-131.77,28.63l-6.95-40.87,13.62-2.22v-116.48h36.14v110.37l11.95-2.22V106.28h-54.21v-38.92h127.88v38.92h-34.47v41.7h28.36v5.56c16.68-26.13,26.97-62.55,32.25-100.91l40.03,6.39c-2.5,15.01-5.56,30.02-9.45,44.2h75.34v37.25h-16.96ZM251.01,143.53c4.17,20.85,10.01,40.59,17.51,58.38,6.67-17.79,10.84-38.36,13.62-61.44h-30.02l-1.11,3.06Z"/><path d="M404.74,189.4c-10.56-9.73-34.19-22.8-52.26-30.3l22.24-30.86c17.51,6.12,41.7,17.51,53.93,26.97l-23.91,34.19ZM362.21,286.7c14.46-20.85,34.75-54.21,51.43-86.74l30.3,26.69c-14.18,29.19-30.3,59.21-46.98,87.01l-34.75-26.97ZM421.98,114.34c-10.56-10.01-33.64-23.07-51.71-30.86l22.24-30.58c17.79,6.39,41.42,18.07,53.38,27.8l-23.91,33.64ZM429.49,142.42c8.34-.28,17.51-.83,27.24-1.39,11.95-26.69,23.35-60.88,29.75-88.68l46.98,10.01c-10.01,26.13-21.96,53.38-33.36,76.45,16.4-1.11,33.36-1.95,50.32-3.06-6.39-9.73-13.07-18.9-19.46-26.97l35.58-17.51c21.68,25.3,43.37,58.94,53.65,82.57l-37.81,20.85c-2.5-6.67-5.84-14.46-10.29-22.8-49.21,4.45-100.36,8.06-137.89,11.12l-4.73-40.59ZM452,198.02h142.61v117.59h-41.14v-9.73h-62.27v10.84h-39.2v-118.71ZM491.2,234.99v33.92h62.27v-33.92h-62.27Z"/><path d="M822.09,85.85c12.49,0,15.87-.58,21.33-3.22l19.77,22.51c-2.6,4.97-3.12,7.01-4.42,17.83-4.42,35.95-10.14,59.04-20.03,81.25-14.57,33.32-36.42,59.04-66.85,78.62-14.57,9.65-27.57,15.78-52.02,25.43-8.32-20.75-14.57-31.27-29.13-49.39,39.02-9.94,64.25-23.09,83.24-43.26,20.03-21.34,31.21-47.93,34.86-83.89h-112.63v26.01c0,13.45.26,22.8,1.04,30.69h-48.64c1.04-10.81,1.56-18.41,1.56-32.15v-40.63c0-11.98-.52-20.17-1.3-31.57,13.53,1.46,17.95,1.75,32.52,1.75h46.56v-17.83c0-10.52-.52-17.54-1.56-26.89h49.94c-.78,7.6-1.3,15.78-1.04,26.6v18.12h46.82Z"/><path d="M924.78,175.46c-14.9,0-22.6.28-31.54,1.4v-41.29c11.67,1.67,17.38,1.95,31.54,1.95h63.32v-13.67c0-10.04-.5-15.62-1.49-25.11h40.23c-.5,6.98-.99,15.35-.99,23.16v2.23l.25,13.39h14.4c14.65,0,19.37-.28,27.31-1.4v40.46c-8.19-.84-14.15-1.12-27.31-1.12h-14.15l.74,92.35c.25,23.99.5,27.34,1.74,37.11h-41.47c.99-8.37,1.49-17.02,1.49-31.25v-5.02l-.5-62.78c-2.48,6.14-11.42,18.69-19.86,28.46-17.13,20.09-35.76,35.43-63.81,52.73-7.7-15.62-14.4-25.39-25.33-36.27,21.85-11.44,35.76-20.93,50.65-34.88,14.9-13.67,25.08-26.23,33.03-40.46h-38.24Z"/><path d="M1143.04,117.71c9.68,20.65,17.38,43.53,24.08,70.59l-38.74,13.11c-6.46-29.3-11.42-46.04-22.1-72.26l36.75-11.44ZM1287.55,122.45c-1.49,5.02-1.74,6.14-3.72,17.02-7.45,39.34-17.13,67.8-31.04,90.96-13.41,22.32-31.04,41.29-52.14,56.64-8.69,6.14-15.4,10.32-30.04,18.69-8.44-17.02-13.41-23.99-27.31-39.34,49.91-21.76,76.97-49.66,92.37-95.98,6.46-19.53,10.68-42.41,10.93-58.87l40.97,10.88ZM1197.67,105.99c13.16,28.74,17.63,41.29,24.09,68.08l-37.99,13.11c-4.72-23.16-11.42-44.08-22.35-70.03l36.25-11.16Z"/><path d="M1511.28,91.76q-6.21,1.67-13.91,4.74c-14.65,5.3-28.31,9.21-48.17,13.39-.25,13.95-.5,31.81-.74,37.94h40.72c19.12,0,28.55-.56,39.23-1.95v45.76c-10.18-1.12-16.14-1.4-38.49-1.4h-44.2c-2.98,25.67-7.7,42.69-16.64,59.15-9.19,16.18-23.84,32.37-41.22,44.64-7.2,5.3-12.17,8.37-24.09,14.23-9.44-18.69-15.89-27.9-30.79-41.85,30.04-12.28,45.44-23.16,56.12-39.9,6.71-10.04,9.93-19.81,12.17-36.27h-48.92c-22.6,0-28.31.28-38.74,1.4v-45.76c10.43,1.67,16.39,1.95,39.48,1.95h52.14c.5-8.37.5-13.67.5-23.44v-7.81c-23.59,2.79-25.58,2.79-65.55,4.74-2.48-15.62-5.46-25.67-12.66-42.41,8.44.56,12.91.56,16.64.56,33.03,0,80.45-6.42,108.76-14.51,12.66-3.63,21.85-7.53,31.29-12.83l27.07,39.62Z"/><path d="M1623.77,329.67h-56.38l8.42-53.6h56.38l-8.42,53.6ZM1628.97,243.52h-40.1l25.34-221.92h61.93l-47.18,221.92Z"/></svg>